<svg width="24" height="24" viewBox="0 0 24 24" fill="none" xmlns="http://www.w3.org/2000/svg">
<path fill-rule="evenodd" clip-rule="evenodd" d="M2.29968 2.83923H5.80233H6.62213L6.78291 3.61096L7.24024 5.80618H20.8431H22.0235L21.8295 6.924L20.7993 12.8579L20.66 13.66H19.8129H8.87647L9.30062 15.696H19.8129V17.616H8.48081H7.66101L7.50023 16.8443L5.43985 6.95445L6.42044 6.76618L5.43985 6.95445L4.98252 4.75923H2.29968V2.83923ZM7.64024 7.72618L8.47647 11.74H18.9658L19.6626 7.72618H7.64024ZM11.1758 20.0054C11.1758 20.8889 10.4316 21.6034 9.51119 21.6034C8.59075 21.6034 7.84656 20.8889 7.84656 20.0054C7.84656 19.1218 8.59075 18.4261 9.51119 18.4261C10.4316 18.4261 11.1758 19.1218 11.1758 20.0054ZM17.7534 21.6034C18.6738 21.6034 19.418 20.8889 19.418 20.0054C19.418 19.1218 18.6738 18.4261 17.7534 18.4261C16.8329 18.4261 16.0887 19.1218 16.0887 20.0054C16.0887 20.8889 16.8329 21.6034 17.7534 21.6034Z" fill="white"/>
</svg>
