<svg width="30" height="30" viewBox="0 0 30 30" fill="none" xmlns="http://www.w3.org/2000/svg">
<path fill-rule="evenodd" clip-rule="evenodd" d="M3.78502 6.57269C6.17872 4.27474 10.0466 4.27474 12.4403 6.57269L15.0001 9.03017L17.56 6.57269C19.9537 4.27474 23.8216 4.27474 26.2154 6.57269C28.609 8.87064 28.609 12.5838 26.2154 14.8818L15.0001 25.6483L3.78502 14.8818C1.39132 12.5838 1.39132 8.87064 3.78502 6.57269ZM10.6725 8.26974C9.25515 6.90905 6.97018 6.90905 5.55278 8.26974C4.1354 9.63044 4.1354 11.824 5.55278 13.1848L15.0001 22.2542L24.4476 13.1848C25.865 11.824 25.865 9.63044 24.4476 8.26974C23.0302 6.90905 20.7452 6.90905 19.3279 8.26974L15.0001 12.4243L10.6725 8.26974Z" fill="#888888"/>
</svg>
